PathFileType	4	(X/Y/Z)	OpenSim_Sub10_EMGBaseline_Accel.trc
DataRate	CameraRate	NumFrames	NumMarkers	Units	OrigDataRate	OrigDataStartFrame	OrigNumFrames
100	100	37	8	m	100	7176	8201
Frame#	Time	torso_imu_offset_imu	pelvis_imu_offset_imu	tibia_r_imu_offset_imu	femur_r_imu_offset_imu	tibia_l_imu_offset_imu	femur_l_imu_offset_imu	toes_r_imu_offset_imu	toes_l_imu_offset_imu
				X1	Y1	Z1	X2	Y2	Z2	X3	Y3	Z3	X4	Y4	Z4	X5	Y5	Z5	X6	Y6	Z6	X7	Y7	Z7	X8		Y8	Z8	

7176	71.75000000	11.34312300	0.13008900	6.78778200	13.00427500	1.67921900	3.47666400	14.73366900	-5.01146601	3.89563600	13.70508100	-5.35999100	0.11503500	11.77091500	0.23857700	2.67769000	10.95402000	2.98344700	-3.08671700	24.01583700	-13.04031800	14.54726701	4.71178100	1.10358500	12.26928000
7177	71.76000000	11.47806200	-0.02626800	6.76987900	13.15575600	2.13026400	4.26219400	11.76747900	-0.28865901	1.52560700	13.68878300	-4.77557700	-0.46889600	12.03566800	-0.05455700	2.43721000	11.20925300	3.17357300	-3.09469000	9.97931801	-3.90330602	5.74694800	4.41951900	0.27716400	12.52261500
7178	71.77000000	11.81498600	-0.21008300	6.80528400	12.99372600	2.47781400	4.22247800	9.69486500	3.86374900	-1.01035400	12.97157300	-4.28608200	-1.08569500	12.68859500	-0.05616900	2.53170900	11.45776200	3.48851000	-2.88627600	5.86499900	11.30390700	15.12839500	4.79960200	1.43796400	12.96829400
7179	71.78000000	12.02762900	-0.28990900	6.76156900	12.28769100	2.10646500	3.66620100	7.41943700	7.24347700	-1.83374300	11.26729300	-3.35419000	-1.12856100	13.40370600	-0.06881600	3.55475700	11.51016800	3.47960700	-2.55843000	6.69995900	0.10418901	8.89257301	4.38810200	0.83618700	12.16149700
7180	71.79000000	11.75336000	-0.40402700	6.54758100	11.14050900	1.38260200	3.58634900	6.51512600	9.49639800	-1.33006200	9.80297100	-1.87227100	-0.07678700	13.19177600	-0.47625700	4.15575500	10.96301700	3.32309700	-1.99105900	7.76294400	-0.05737500	7.57022600	4.90776400	0.12712100	11.47716300
7181	71.80000000	11.17712500	-0.33992900	6.31379000	10.27711400	0.60214300	3.65115600	7.48959500	8.79886300	-3.53135600	9.10119000	-0.20060200	1.49168900	12.86906600	-0.49547200	3.97351900	10.46869800	3.08940200	-1.25008400	5.63984500	0.52208100	9.41800800	6.77647500	-0.42467900	12.08038000
7182	71.81000000	10.96062300	-0.02596000	6.06390900	9.72745800	0.17096200	3.65953100	7.92097000	8.41995400	-5.49529400	8.97625800	1.37401100	1.53933000	13.20282500	-0.14929800	3.72884900	10.51963800	2.55913100	-1.02546500	5.94217800	-2.49093500	7.27038200	6.80855700	1.70397600	13.49341200
7183	71.82000000	10.42546200	0.18554000	5.90418700	9.40285200	0.04751200	3.77501700	7.70076300	9.47218100	-2.43503800	9.34763600	2.63550400	0.61560100	13.42316800	1.01720600	3.21627900	10.17619200	2.11346100	-0.80774500	5.73861100	-0.18456000	8.98512000	6.77886200	2.51353700	13.08929200
7184	71.83000000	9.79403000	0.19334900	5.67080700	9.26284600	0.00575200	4.15088700	7.85919500	9.76321600	1.25320100	9.38554600	3.26847100	-0.58152800	13.29882200	2.24931500	2.48722500	9.55404700	1.56855500	-0.38429700	5.33667900	-0.13162800	8.83338800	9.98458200	-0.99407300	11.31399100
7185	71.84000000	9.60665600	-0.16679600	5.30218800	9.14535000	0.23578300	4.56539600	9.19487600	8.02160500	1.99576900	8.81214400	3.38119700	-1.77506700	12.96239600	2.62538600	1.71529200	8.72950400	1.43790900	-0.11226000	5.39094000	0.66346500	8.82146800	11.85685400	-1.53534100	10.80970000
7186	71.85000000	9.32496500	-0.31947700	5.18295700	9.12098300	0.66274300	4.68671300	11.51228700	6.04562300	0.91886500	8.25756500	3.07506900	-2.12228600	12.51324400	2.36306000	0.69779800	8.27863700	1.16296500	0.04514400	4.93554000	0.66043100	9.02227000	10.29221500	5.20982899	14.64816800
7187	71.86000000	8.77756700	-0.35454200	5.16593300	8.98230600	1.01778300	4.74830500	12.33662300	4.17715900	0.86908400	8.58875200	2.29087600	-1.50924100	12.09282700	2.16561000	0.34080100	8.14325600	0.84039800	0.17750300	4.80071800	0.50972400	8.97385100	7.55117000	9.59615400	14.29220400
7188	71.87000000	8.17277200	-0.40785000	4.99529000	8.70497400	1.40012800	4.77244600	11.31001000	1.93479000	1.01908500	9.33861800	1.47963100	-0.80320500	11.62079800	1.48049700	-0.35001500	8.58297900	0.66059700	0.03590300	4.70859300	0.51078200	9.09307800	8.45897399	0.95806500	10.41849000
7189	71.88000000	7.72318400	-0.46043300	4.88015600	8.37460900	1.74163900	4.99001100	9.99977200	-0.13333500	0.15504400	9.95839400	0.51474800	-0.49179800	11.24320400	-0.35882900	0.12633100	9.05229600	0.34993400	-0.17304800	4.82341400	0.37283600	8.77168700	16.42382300	4.45294699	13.41265500
7190	71.89000000	7.48983700	-0.61686900	4.87098900	8.00764800	1.98371700	5.04204700	9.25189800	-1.73674200	0.00205800	9.91553400	-0.63817300	-0.66548500	10.58560900	-3.29407500	1.22877800	9.76854400	0.00230200	-0.14037200	4.84835200	0.34298600	8.92177000	12.78155900	6.99661100	12.82273300
7191	71.90000000	7.43933800	-0.85627100	4.87381100	7.74358000	1.85849200	5.01558700	9.46490800	-2.60957700	-0.71032700	9.67197400	-1.69267100	-1.00237200	9.79196600	-6.39086000	1.57228800	10.97080000	-0.41419800	-0.11816400	4.91533300	0.05742600	8.81611000	16.20996900	3.74104600	11.97217400
7192	71.91000000	7.48417400	-1.07250100	4.97821700	7.70808000	1.68050900	4.87529900	9.65445800	-2.55256400	-0.85730600	9.50679600	-2.58848600	-1.22774400	9.15074400	-8.84793200	0.73767900	11.87842400	-0.74613100	-0.03096200	4.99503300	0.13701800	8.67911400	14.03096501	8.14776600	12.78166500
7193	71.92000000	7.73488600	-1.28978000	4.99001500	7.90039500	1.52077200	4.69282600	9.61629900	-1.72268600	-0.56011000	9.04532600	-3.19584200	-1.07253200	8.51595100	-10.13356100	-1.16737700	12.09947900	-0.60291400	-0.02263400	4.89160100	0.19997800	8.93270400	8.96424000	4.34182300	11.99241899
7194	71.93000000	8.07484200	-1.39186700	5.19201200	8.32651000	1.43674900	4.48721500	9.92460300	-0.63025500	-0.34737500	8.50418300	-3.35847900	-0.74025900	7.82984300	-11.21452100	-2.91584300	11.66772100	-0.32794200	0.03111700	4.99727600	0.18927300	8.77143100	10.73054699	2.40556800	25.72692499
7195	71.94000000	8.49612200	-1.18186600	5.43298900	8.58166200	1.36626400	4.35738700	10.27616000	0.99476500	-0.57149400	8.23368900	-3.31985800	-0.72750500	6.65436400	-12.61580100	-3.75441000	11.56916800	0.14267500	0.26482000	4.82764900	-0.00639300	8.82725000	21.74581401	-2.80450200	27.36610701
7196	71.95000000	9.10544300	-1.06282700	5.41726100	8.71093600	1.41955200	4.38033800	10.41750100	2.69665800	-0.89291500	8.18585400	-3.12075600	-0.92164100	4.74116100	-12.75381700	-4.26380800	11.78446000	0.85988800	0.05742800	4.87474600	0.09326500	8.90780400	0.80605902	1.62337400	21.01256901
7197	71.96000000	9.32742500	-0.97602700	5.49856700	8.77663300	1.31026500	4.38747700	10.14708100	3.86445600	-1.34336100	8.33072900	-2.86352500	-1.03269400	3.19467100	-10.59200400	-2.53497700	11.99986500	2.05541300	-0.34673300	4.76759900	-0.17322200	8.89439700	-4.46971600	3.18240800	15.97705200
7198	71.97000000	9.45867900	-0.75877700	5.57967500	8.88204300	1.09164400	4.21651200	9.45948400	4.02677300	-1.13457900	8.70610200	-2.55230400	-1.24768400	1.98057800	-8.17584400	-0.31311200	11.77828000	2.92888900	-0.67143900	5.30529600	-0.05199800	8.57632500	-4.96581900	5.03448700	13.84174500
7199	71.98000000	9.62036800	-0.64660100	5.55526500	9.09473000	0.95007100	3.85560800	9.02849200	3.49082200	-0.90323300	8.82037600	-1.96613700	-1.39802400	1.40225900	-6.45019400	1.31025700	11.07153200	3.33504000	-0.74097000	4.93906100	0.04406600	8.72012300	-1.73301500	3.59418300	13.64675600
7200	71.99000000	9.58367200	-0.60456800	5.44229200	9.22647200	0.84144400	3.56717700	9.32001700	3.00201800	-0.71396100	8.84488700	-1.22681100	-1.31339700	1.33838200	-5.83933400	2.66913200	10.26151300	3.23900500	-0.54280700	4.76671700	-0.04102200	8.78192800	-0.31751800	2.06095000	13.77941600
7201	72	9.27108500	-0.63755900	5.45860100	9.25212600	0.75641100	3.38381700	10.04953400	2.73592400	-0.73360600	8.88529700	-0.39637400	-1.08653800	1.18970200	-6.14879700	3.15884200	9.58209900	3.22488400	-0.24208500	4.90046000	-0.00357900	8.78459700	0.11927900	0.72956500	13.51756700
7202	72.01000000	8.96575100	-0.57966400	5.47094300	9.26889600	0.74410900	3.24616700	10.49169600	2.57182000	-0.57575200	8.98747200	0.14976900	-0.88398500	1.01765100	-7.00566500	2.75457400	9.24529300	3.20364800	0.15981500	5.13805800	0.25054900	8.60156500	0.14097100	0.27631100	13.08288800
7203	72.02000000	8.93489200	-0.56778600	5.52146100	9.15287100	0.83236400	3.15760400	10.24575100	2.47357000	-0.27996200	9.16124500	0.39365200	-0.80742200	0.86879700	-7.68909400	1.95470500	9.10220000	3.19206700	0.49765700	5.07115800	0.31467000	8.70420500	-0.04375700	0.38404800	12.41582200
7204	72.03000000	9.39597400	-0.61235700	5.29962200	9.00993600	0.83254000	3.01033000	9.71592500	2.42937500	-0.26849700	9.30267400	0.46834200	-0.73115400	0.95362300	-7.44840400	1.26920300	8.98354600	3.17459300	0.65558500	4.92316900	0.38499100	8.79937900	-0.33706100	0.42769400	11.79173700
7205	72.04000000	9.34590700	-0.55995200	5.36625300	8.90251400	0.86221900	2.95112300	9.41683600	2.41010400	-0.13139400	9.37610900	0.31732900	-0.71045000	1.38917200	-6.69229600	1.08926500	8.82559500	3.18951800	0.52911200	4.84419000	0.30175600	8.75098700	-0.19012700	-0.05737900	11.38219800
7206	72.05000000	8.93431600	-0.36221300	5.53988800	8.85671700	0.87582300	2.95433600	9.46936700	2.36307600	-0.02548100	9.41391900	-0.02764500	-0.68252700	1.96602300	-5.85591800	1.08194000	8.80741300	3.17254800	0.15690200	4.72203200	0.29072600	8.90380800	0.73860600	-0.71638000	11.47474700
7207	72.06000000	8.86866900	-0.24629700	5.60110100	8.91700900	1.01146800	2.88612400	9.77840600	2.21173900	-0.00103300	9.37338700	-0.48689200	-0.68036300	2.50661800	-5.04119900	1.64289400	8.73683200	3.07475100	-0.08943100	5.06373100	0.45045500	8.70403300	1.79107400	-1.55651300	11.62010900
7208	72.07000000	8.92022000	-0.24870100	5.59740100	9.02513900	1.21959900	2.87007600	10.04141300	2.14678800	-0.36077300	9.23650100	-0.72969200	-0.55612600	3.04848600	-4.19992100	2.19787600	8.26402700	3.00346400	-0.31412700	4.91934600	0.31139700	8.75571900	2.56317400	-2.25486500	11.84321600
7209	72.08000000	8.79175200	-0.37845800	5.66850400	9.05259100	1.51883900	2.75766100	9.93263000	2.25369600	-0.05166100	9.10161100	-0.94639700	-0.35087500	3.87439300	-3.83367100	1.57279300	8.10537700	2.72245000	-0.36199700	4.99552600	0.19565900	8.62078400	4.09962400	-2.00011700	12.89380200
7210	72.09000000	8.57145200	-0.35856900	5.66982200	8.91844600	1.74618700	2.72320400	9.64818900	2.20343800	0.05745100	8.93188000	-1.05134600	-0.24180900	4.26857100	-3.93508300	0.91241400	7.85336500	2.49154700	-0.40914900	4.83340600	0.32221900	8.60858700	5.71705000	-1.60123300	13.93052500
7211	72.10000000	8.34043600	-0.33655800	5.71528500	8.73656200	2.01796900	2.76761000	9.38798200	1.92685700	0.01559600	8.84628000	-1.03162400	-0.13206300	4.09748100	-4.56010400	1.08230700	7.67234500	2.45045600	-0.43154100	5.01839100	0.37222800	8.61662100	6.89703600	-1.70989300	14.70978900
7212	72.11000000	8.26677400	-0.36050400	5.71269600	8.47543800	2.24346200	2.81059700	9.36085900	1.53814900	-0.08555000	8.66046600	-0.98796900	-0.06331800	3.89307200	-4.69293200	1.68346800	7.65475400	2.23113300	-0.35397800	4.83352400	0.26610400	8.63808300	7.95616100	-1.67441300	14.90758400
